<?xml version="1.0" standalone="no"?>
<!DOCTYPE svg PUBLIC "-//W3C//DTD SVG 20010904//EN" "http://www.w3.org/TR/2001/REC-SVG-20010904/DTD/svg10.dtd">
<svg version="1.0" xmlns="http://www.w3.org/2000/svg" width="1920.000000pt" height="554.000000pt"
	viewBox="0 0 1920.000000 554.000000" preserveAspectRatio="xMidYMid meet">

	<g transform="translate(0.000000,554.000000) scale(0.100000,-0.100000)" fill="#ffffff" stroke="none">
		<path d="M14264 4949 c-43 -43 -82 -79 -86 -79 -5 0 -8 34 -8 75 l0 75 -413 0
-414 0 -627 -630 c-367 -370 -624 -636 -620 -642 4 -7 3 -8 -4 -4 -14 8 -194
-172 -186 -186 5 -7 2 -8 -6 -3 -7 4 -16 2 -20 -5 -4 -7 -260 -265 -569 -574
-308 -309 -561 -565 -561 -569 0 -4 465 -7 1032 -7 l1033 0 266 266 267 267 0
-49 c0 -27 1 -147 1 -266 l1 -218 410 0 410 0 0 678 0 677 78 78 c42 42 81 77
85 77 4 0 7 -340 7 -755 l0 -755 415 0 415 0 0 1315 0 1316 -413 -1 -414 -1
-79 -80z" />
		<path d="M15339 5020 c-1 -5 -1 -17 -1 -25 0 -8 0 -595 1 -1305 l1 -1290 415
0 415 0 -2 1313 -3 1312 -412 3 c-273 1 -413 -1 -414 -8z" />
		<path d="M16337 5023 c-4 -3 -7 -192 -7 -420 l0 -413 315 0 315 0 0 -895 0
-895 415 0 415 0 0 895 0 895 315 0 315 0 -2 418 -3 417 -1036 3 c-569 1
-1039 -1 -1042 -5z" />
		<path d="M560 4190 l0 -830 830 0 830 0 0 830 0 830 -830 0 -830 0 0 -830z
m630 181 c0 -214 4 -329 12 -352 28 -85 84 -123 184 -128 82 -4 133 22 171 86
l28 48 3 333 3 332 125 0 125 0 -3 -357 -3 -358 -27 -63 c-15 -34 -41 -80 -57
-101 -17 -21 -27 -42 -23 -46 4 -5 2 -5 -4 -2 -6 4 -22 -3 -35 -14 -114 -99
-377 -120 -532 -42 -98 49 -162 128 -198 244 -17 55 -19 96 -19 400 l0 339
125 0 125 0 0 -319z" />
		<path d="M2400 4190 l0 -830 830 0 830 0 0 830 0 830 -830 0 -830 0 0 -830z
m676 285 c82 -118 151 -215 154 -215 3 0 21 24 41 53 19 28 86 125 148 215
l112 162 120 0 119 0 0 -505 0 -505 -125 0 -125 0 -2 285 -3 286 -140 -191
c-76 -105 -144 -189 -149 -187 -6 2 -66 80 -133 173 -68 93 -130 176 -138 184
-13 13 -15 -20 -15 -268 l0 -282 -125 0 -125 0 0 505 0 505 119 0 119 0 148
-215z" />
		<path d="M4240 4190 l0 -830 830 0 830 0 0 830 0 830 -830 0 -830 0 0 -830z
m1054 478 c-3 -13 -12 -30 -19 -38 -19 -23 -156 -242 -153 -245 2 -1 25 -7 51
-14 126 -31 228 -114 266 -216 31 -82 27 -216 -9 -288 -34 -69 -104 -135 -179
-170 -83 -39 -215 -49 -306 -22 -207 60 -316 247 -257 441 22 71 56 129 285
487 l57 87 135 0 136 0 -7 -22z" />
		<path d="M4984 4141 c-63 -39 -81 -122 -42 -192 63 -113 259 -80 269 46 5 64
-2 86 -35 122 -31 34 -39 37 -97 40 -51 3 -71 0 -95 -16z" />
		<path d="M6077 5013 c-4 -3 -7 -377 -7 -830 l0 -823 835 0 835 0 0 830 0 830
-828 0 c-456 0 -832 -3 -835 -7z m1057 -358 c68 -34 128 -98 165 -175 23 -48
26 -68 26 -155 0 -89 -3 -106 -28 -157 -35 -71 -128 -159 -194 -183 -36 -14
-89 -19 -210 -23 l-162 -4 -3 -137 -3 -136 -122 -3 -123 -3 0 506 0 506 298
-3 297 -3 59 -30z" />
		<path d="M6730 4323 l0 -145 133 4 c119 3 135 5 165 26 68 49 82 131 33 200
-38 51 -67 60 -213 60 l-118 1 0 -146z" />
		<path d="M8972 2788 c3 -2117 4 -2233 21 -2236 16 -3 17 108 17 2232 0 2230 0
2236 -20 2236 -20 0 -20 -5 -18 -2232z" />
		<path d="M550 2718 c0 -193 1 -206 24 -254 37 -79 101 -114 208 -114 96 0 159
36 201 115 20 36 22 58 25 248 l4 208 -34 -3 -33 -3 -5 -205 c-5 -214 -8 -226
-55 -270 -22 -21 -38 -25 -98 -28 -88 -4 -128 17 -157 81 -17 37 -20 66 -20
235 l0 192 -30 0 -30 0 0 -202z" />
		<path d="M1584 2886 c-12 -49 43 -76 70 -33 15 24 -3 51 -37 55 -21 3 -28 -2
-33 -22z" />
		<path d="M3302 2898 c-30 -30 0 -75 42 -64 29 7 40 31 26 57 -12 21 -50 25
-68 7z" />
		<path d="M3510 2825 l0 -65 -40 0 c-38 0 -40 -2 -40 -30 0 -28 2 -30 40 -30
l40 0 0 -125 c0 -152 11 -188 67 -211 24 -11 50 -14 77 -10 51 9 54 11 49 39
-4 22 -9 24 -53 19 -71 -7 -80 11 -80 165 l0 123 70 0 70 0 0 30 0 30 -70 0
-70 0 0 65 0 65 -30 0 -30 0 0 -65z" />
		<path d="M1305 2765 c-5 -2 -22 -6 -37 -9 -14 -3 -40 -18 -57 -32 -17 -14 -32
-22 -32 -17 -1 4 -2 13 -4 18 -1 6 -3 16 -3 23 -1 8 -12 12 -29 10 l-28 -3 0
-195 0 -195 30 0 30 0 3 125 c3 142 15 173 72 203 50 26 107 17 143 -23 27
-30 27 -32 27 -170 l0 -140 30 0 30 0 0 146 c0 130 -2 150 -21 184 -11 20 -33
44 -47 52 -28 16 -89 29 -107 23z" />
		<path d="M2305 2761 c-104 -26 -155 -95 -155 -208 0 -114 68 -192 175 -201 83
-7 122 4 171 50 50 46 53 55 22 67 -18 7 -29 3 -53 -19 -54 -51 -106 -61 -175
-34 -42 17 -80 66 -80 103 0 21 3 21 170 21 170 0 170 0 170 23 0 39 -21 101
-45 133 -40 52 -132 82 -200 65z m123 -71 c29 -18 62 -71 62 -100 0 -6 -50
-10 -140 -10 -154 0 -156 1 -125 61 35 66 135 90 203 49z" />
		<path d="M2988 2758 c-42 -11 -98 -68 -98 -99 0 -25 18 -60 39 -76 9 -7 60
-26 113 -43 101 -32 125 -51 113 -90 -8 -26 -55 -50 -95 -50 -44 0 -93 23
-117 55 -17 24 -23 27 -47 19 l-27 -9 23 -35 c69 -104 264 -107 312 -5 22 45
14 88 -21 115 -14 11 -65 32 -112 46 -121 37 -143 60 -98 102 41 39 133 26
172 -25 12 -15 55 -6 55 11 0 14 -46 59 -75 74 -33 16 -97 21 -137 10z" />
		<path d="M1590 2560 l0 -200 30 0 30 0 0 200 0 200 -30 0 -30 0 0 -200z" />
		<path d="M1720 2753 c0 -5 37 -95 82 -200 l83 -193 35 0 35 0 83 193 c45 105
82 195 82 200 0 4 -13 7 -28 7 -28 0 -32 -7 -97 -160 -37 -88 -71 -160 -75
-160 -4 0 -38 72 -75 160 -65 153 -69 160 -97 160 -15 0 -28 -3 -28 -7z" />
		<path d="M2640 2571 c0 -105 -1 -194 -2 -198 -2 -5 12 -9 30 -11 l32 -3 0 126
c0 162 20 205 103 220 30 6 37 11 37 31 0 20 -5 24 -32 24 -36 0 -97 -32 -99
-52 -1 -7 -4 1 -8 17 -5 23 -12 31 -34 33 l-27 3 0 -190z" />
		<path d="M3307 2754 c-4 -4 -7 -95 -7 -201 l0 -194 33 3 32 3 0 195 0 195 -25
3 c-14 2 -29 0 -33 -4z" />
		<path d="M3760 2754 c0 -4 41 -93 90 -197 l91 -191 -36 -82 c-19 -45 -35 -85
-35 -89 0 -3 14 -5 30 -3 30 3 34 9 150 278 66 151 120 278 120 283 0 4 -14 7
-31 5 -29 -3 -33 -10 -97 -160 -37 -86 -70 -154 -74 -150 -4 4 -38 75 -75 157
-66 145 -70 150 -101 153 -18 2 -32 0 -32 -4z" />
		<path d="M1690 1810 l0 -290 30 0 30 0 0 115 c0 128 11 169 54 203 37 29 75
35 121 20 62 -21 75 -58 75 -210 l0 -128 31 0 31 0 -4 148 c-3 126 -6 152 -23
182 -26 44 -77 70 -138 70 -54 0 -79 -10 -119 -48 l-28 -26 0 127 0 127 -30 0
-30 0 0 -290z" />
		<path d="M4920 1973 l0 -127 -27 26 c-52 50 -138 63 -210 33 -65 -27 -103 -79
-118 -158 -19 -101 54 -214 151 -235 65 -14 134 1 174 38 l30 28 0 -29 c0 -26
4 -29 30 -29 l30 0 0 290 0 290 -30 0 -30 0 0 -127z m-83 -123 c56 -25 83 -70
83 -136 0 -118 -114 -188 -218 -135 -87 45 -106 175 -35 243 53 51 103 59 170
28z" />
		<path d="M550 1795 l0 -275 35 0 35 0 2 218 3 217 93 -133 c52 -72 98 -134
102 -137 5 -3 53 58 107 135 l98 141 3 -221 2 -220 30 0 30 0 0 276 0 275 -32
-3 c-29 -3 -42 -17 -132 -145 -55 -78 -102 -140 -106 -138 -4 2 -51 67 -104
145 -93 134 -99 140 -132 140 l-34 0 0 -275z" />
		<path d="M5281 2018 c11 -29 61 -153 111 -275 l90 -223 37 0 36 0 105 262 c58
144 107 268 108 275 3 11 -5 14 -30 11 l-33 -3 -90 -227 c-50 -124 -92 -229
-95 -232 -3 -2 -47 101 -99 230 l-93 234 -34 0 -34 0 21 -52z" />
		<path d="M5840 1795 l0 -275 30 0 30 0 0 275 0 275 -30 0 -30 0 0 -275z" />
		<path d="M1289 1897 c-100 -53 -136 -188 -77 -289 49 -82 143 -119 241 -93 55
14 112 62 133 112 32 75 10 186 -48 240 -60 57 -173 70 -249 30z m192 -58 c40
-28 59 -69 59 -124 0 -137 -144 -203 -246 -113 -110 97 -31 280 114 263 24 -3
57 -14 73 -26z" />
		<path d="M2255 1904 c-126 -65 -155 -235 -57 -337 41 -43 79 -59 142 -59 62 0
90 10 133 50 l27 26 0 -32 c0 -29 3 -32 30 -32 l30 0 0 195 0 195 -30 0 c-27
0 -30 -3 -30 -32 l0 -32 -27 26 c-16 15 -41 32 -56 37 -41 16 -127 13 -162 -5z
m174 -62 c130 -96 65 -292 -92 -279 -82 7 -137 68 -137 152 0 118 138 195 229
127z" />
		<path d="M2795 1909 c-11 -6 -30 -21 -42 -32 l-23 -20 0 26 c0 23 -4 27 -30
27 l-30 0 0 -195 0 -195 29 0 29 0 4 133 c3 119 5 135 26 164 30 43 87 61 128
42 51 -24 64 -68 64 -211 l0 -128 29 0 29 0 4 139 c3 138 3 140 31 169 36 37
77 46 123 27 52 -22 64 -60 64 -210 l0 -125 31 0 31 0 -4 153 c-3 169 -10 190
-71 227 -59 36 -178 19 -209 -29 -12 -20 -13 -20 -45 11 -28 27 -42 32 -90 35
-33 2 -67 -2 -78 -8z" />
		<path d="M3515 1904 c-16 -8 -34 -22 -38 -30 -13 -23 -26 -16 -21 11 4 23 1
25 -31 25 l-35 0 0 -195 0 -195 35 0 35 0 -1 124 c-2 145 10 178 74 210 34 16
42 17 75 4 55 -21 62 -44 62 -200 l0 -138 35 0 35 0 0 133 c0 112 3 137 19
163 26 42 78 60 126 44 56 -18 65 -48 65 -205 l0 -135 33 0 32 0 -3 152 c-3
109 -8 160 -18 180 -43 83 -191 93 -258 19 -19 -21 -19 -21 -33 -1 -34 48
-128 65 -188 34z" />
		<path d="M4220 1909 c-36 -14 -79 -58 -102 -103 -29 -57 -23 -158 14 -213 70
-106 260 -115 337 -17 25 32 23 48 -8 52 -15 2 -28 -4 -38 -17 -51 -74 -194
-66 -243 14 -20 33 -26 65 -12 65 4 0 79 1 167 3 l160 2 0 51 c-1 65 -38 125
-95 154 -43 22 -136 26 -180 9z m144 -53 c33 -14 76 -70 76 -100 0 -14 -17
-16 -140 -16 -154 0 -158 2 -123 60 35 60 118 85 187 56z" />
		<path d="M12490 1730 c-148 -27 -224 -188 -155 -327 36 -72 90 -106 177 -111
75 -5 119 7 163 42 l30 25 -22 22 -21 22 -33 -23 c-48 -35 -127 -39 -175 -10
-41 26 -73 86 -74 139 0 55 36 119 81 141 51 27 96 25 152 -4 44 -24 46 -24
62 -6 24 27 12 48 -37 69 -53 23 -102 30 -148 21z" />
		<path d="M14586 1726 c-57 -21 -87 -46 -121 -100 -25 -41 -29 -58 -29 -115 0
-48 6 -77 22 -108 64 -122 222 -160 338 -81 40 27 42 37 11 67 -21 19 -26 20
-36 7 -21 -26 -97 -49 -135 -42 -72 14 -116 73 -116 156 0 80 32 127 102 149
43 14 101 2 141 -29 l25 -20 21 29 c12 16 21 32 21 35 0 3 -20 17 -45 32 -56
32 -142 41 -199 20z" />
		<path d="M17667 1726 c-96 -36 -152 -117 -151 -221 0 -133 90 -219 229 -220
59 0 78 4 118 28 148 87 149 306 2 392 -55 33 -142 42 -198 21z m139 -75 c56
-25 84 -73 84 -142 0 -96 -54 -153 -144 -153 -92 0 -146 58 -146 156 0 68 27
113 83 138 52 24 71 24 123 1z" />
		<path d="M10902 1713 c-5 -10 -31 -67 -57 -128 -26 -60 -62 -142 -80 -181 -52
-112 -52 -114 -13 -114 32 0 36 4 57 55 l23 55 108 0 108 0 22 -55 c21 -51 25
-55 56 -55 21 0 34 5 33 13 0 6 -42 104 -92 217 -90 201 -93 205 -124 208 -23
2 -34 -2 -41 -15z m79 -155 c19 -45 36 -85 37 -90 2 -4 -33 -8 -78 -8 -45 0
-80 3 -78 8 2 4 19 44 37 90 19 45 38 82 41 82 4 0 22 -37 41 -82z" />
		<path d="M11257 1723 c-4 -3 -7 -102 -7 -220 l0 -213 35 0 35 0 0 90 0 90 110
0 c61 0 111 3 111 8 1 4 2 18 3 32 l1 25 -112 3 -113 3 0 59 0 60 125 0 125 0
0 35 0 35 -153 0 c-85 0 -157 -3 -160 -7z" />
		<path d="M11670 1510 l0 -220 35 0 35 0 0 80 0 80 49 0 49 0 58 -80 c55 -76
59 -80 96 -80 45 0 46 -6 -26 94 -38 52 -47 71 -36 74 8 3 32 22 53 42 33 34
37 43 37 89 0 44 -5 56 -32 86 -39 42 -94 55 -229 55 l-89 0 0 -220z m257 128
c31 -29 30 -72 -2 -103 -22 -22 -32 -25 -105 -25 l-80 0 0 75 0 75 82 0 c70 0
85 -3 105 -22z" />
		<path d="M12137 1724 c-4 -4 -7 -103 -7 -221 l0 -213 35 0 35 0 -2 218 -3 217
-25 3 c-14 2 -29 0 -33 -4z" />
		<path d="M12929 1683 c-11 -27 -35 -82 -54 -123 -72 -164 -115 -263 -115 -267
0 -2 16 -3 36 -1 34 3 38 7 56 56 l20 53 110 -3 110 -3 22 -52 c20 -50 23 -53
57 -53 l37 0 -80 183 c-44 100 -86 199 -95 220 -13 33 -19 37 -49 37 -32 0
-36 -4 -55 -47z m95 -132 c20 -45 36 -85 36 -87 0 -2 -36 -4 -80 -4 -44 0 -80
1 -80 3 0 5 66 152 74 165 11 17 9 19 50 -77z" />
		<path d="M13294 1721 c-2 -2 -4 -100 -4 -218 l0 -213 35 0 35 0 0 156 c0 94 4
154 10 152 9 -3 22 -19 169 -211 63 -83 78 -97 102 -97 l29 0 -2 218 -3 217
-32 2 -32 1 -3 -151 c-2 -122 -5 -149 -15 -137 -24 28 -99 125 -162 207 -55
73 -65 82 -92 80 -17 -1 -32 -4 -35 -6z" />
		<path d="M14039 1510 l-96 -220 39 0 c38 0 41 2 61 50 l21 50 107 0 107 0 21
-50 c21 -48 23 -50 61 -50 22 0 40 2 40 4 0 2 -42 99 -94 217 l-93 214 -39 3
-39 3 -96 -221z m197 -26 c6 -24 5 -24 -65 -24 -39 0 -71 4 -71 9 0 5 16 44
36 87 l37 79 28 -64 c16 -35 32 -74 35 -87z" />
		<path d="M14979 1510 l-97 -220 42 0 c41 0 42 1 60 50 l18 51 110 -3 110 -3
18 -45 c16 -42 20 -45 59 -48 22 -2 41 -1 41 1 0 4 -61 146 -142 332 l-44 100
-40 3 -39 3 -96 -221z m201 -36 c0 -11 -18 -14 -71 -14 -81 0 -79 -7 -27 109
l30 66 34 -74 c19 -40 34 -80 34 -87z" />
		<path d="M15420 1510 l0 -220 113 0 c104 0 118 2 168 28 35 18 64 42 84 70 27
40 30 51 30 122 0 71 -3 82 -30 121 -19 27 -50 54 -84 71 -49 26 -62 28 -167
28 l-114 0 0 -220z m236 134 c54 -26 79 -69 79 -136 0 -98 -58 -148 -172 -148
l-63 0 0 150 0 150 61 0 c36 0 75 -7 95 -16z" />
		<path d="M15920 1510 l0 -220 165 0 165 0 0 35 0 35 -130 0 -131 0 3 58 3 57
113 3 112 3 0 29 0 29 -112 3 -113 3 -3 58 -3 57 126 0 125 0 0 35 0 35 -160
0 -160 0 0 -220z" />
		<path d="M16340 1510 l0 -220 40 0 39 0 3 152 3 152 64 -97 c35 -53 67 -95 71
-92 4 2 34 45 66 94 32 50 62 91 67 91 4 0 7 -67 7 -150 l0 -150 35 0 35 0 0
220 0 220 -39 0 c-39 0 -40 -1 -103 -100 -35 -55 -66 -100 -70 -100 -3 0 -35
45 -70 100 l-63 100 -42 0 -43 0 0 -220z" />
		<path d="M16850 1726 c0 -3 38 -63 85 -135 l85 -130 0 -85 0 -86 40 0 40 0 0
88 0 87 78 120 c43 66 81 126 86 133 5 9 -4 12 -37 12 l-44 0 -59 -95 c-32
-52 -61 -94 -64 -95 -3 0 -32 43 -64 95 l-59 95 -43 0 c-24 0 -44 -2 -44 -4z" />
		<path d="M18070 1510 l0 -220 40 0 40 0 0 90 0 90 110 0 110 0 0 35 0 35 -110
0 -110 0 0 60 0 60 125 0 125 0 0 35 0 35 -165 0 -165 0 0 -220z" />
		<path d="M1530 965 l0 -295 30 0 30 0 0 295 0 295 -30 0 -30 0 0 -295z" />
		<path d="M3370 965 l0 -296 28 3 27 3 1 105 c1 143 8 172 50 209 28 25 44 31
80 31 97 0 114 -31 114 -215 l0 -135 30 0 30 0 0 148 c0 161 -9 197 -61 235
-56 40 -159 32 -213 -18 -14 -13 -26 -21 -27 -17 0 4 -1 59 -2 122 l-2 115
-27 3 -28 3 0 -296z" />
		<path d="M552 953 l3 -278 30 0 30 0 3 96 3 97 123 3 c117 4 124 5 160 33 55
42 76 81 76 145 0 73 -36 136 -93 162 -35 15 -67 19 -190 19 l-147 0 2 -277z
m334 183 c28 -28 34 -42 34 -75 0 -23 -7 -55 -15 -71 -25 -48 -61 -60 -180
-60 l-105 0 0 120 0 120 116 0 116 0 34 -34z" />
		<path d="M4316 1214 c-19 -19 -20 -36 -4 -52 24 -24 78 -8 78 24 0 17 -28 44
-45 44 -7 0 -21 -7 -29 -16z" />
		<path d="M2190 1140 l0 -70 -40 0 c-36 0 -40 -3 -40 -24 0 -21 5 -25 38 -28
l37 -3 5 -140 c5 -150 14 -179 56 -195 31 -12 104 -13 122 -1 8 5 12 17 10 27
-3 16 -11 18 -45 16 -32 -2 -47 2 -62 17 -19 19 -21 33 -21 151 l0 129 68 3
c59 3 67 5 67 23 0 18 -8 20 -67 23 l-68 3 0 69 0 70 -30 0 -30 0 0 -70z" />
		<path d="M1145 1062 c-142 -67 -166 -263 -43 -355 99 -74 236 -53 305 46 22
31 28 53 31 106 4 82 -23 142 -84 184 -55 39 -149 47 -209 19z m165 -59 c43
-25 64 -63 68 -123 2 -42 -2 -62 -17 -88 -61 -97 -202 -95 -258 4 -78 136 71
285 207 207z" />
		<path d="M2556 1070 c-40 -12 -103 -76 -117 -118 -14 -43 -14 -127 0 -163 26
-68 114 -129 188 -129 55 0 116 24 154 60 46 43 48 57 13 66 -19 5 -29 1 -40
-15 -35 -49 -133 -67 -194 -36 -37 19 -70 62 -70 91 l0 24 170 0 170 0 0 28
c0 82 -61 173 -128 192 -44 12 -106 12 -146 0z m150 -65 c26 -17 48 -48 59
-82 l6 -23 -140 0 c-128 0 -141 2 -141 18 0 19 25 60 50 79 42 34 121 38 166
8z" />
		<path d="M3022 1069 c-73 -21 -132 -114 -132 -205 1 -107 101 -204 211 -204
58 0 146 47 170 91 12 23 5 33 -27 43 -16 5 -23 2 -27 -13 -8 -31 -66 -61
-118 -61 -148 0 -202 191 -78 282 52 38 154 21 192 -32 12 -17 22 -21 41 -16
33 8 33 17 -1 57 -51 60 -143 83 -231 58z" />
		<path d="M3980 1069 c-14 -6 -37 -22 -52 -36 l-28 -27 0 32 c0 29 -3 32 -30
32 l-30 0 0 -200 0 -200 30 0 30 0 0 120 c0 139 12 179 62 210 50 30 110 27
150 -9 l33 -29 3 -146 4 -146 30 0 30 0 -4 153 c-3 137 -5 156 -26 188 -12 20
-38 44 -56 53 -38 18 -108 20 -146 5z" />
		<path d="M4598 1070 c-108 -32 -168 -177 -119 -285 60 -132 231 -165 332 -64
45 45 48 56 17 68 -19 7 -27 4 -42 -15 -55 -73 -177 -72 -235 2 -44 55 -39
143 10 199 56 64 144 67 207 8 27 -25 42 -33 59 -28 30 7 29 16 -4 56 -49 58
-145 83 -225 59z" />
		<path d="M1706 953 c31 -65 72 -153 91 -195 l36 -78 -31 -74 c-17 -41 -33 -79
-34 -86 -3 -14 32 -23 48 -12 7 4 53 103 103 220 51 116 105 241 121 277 l29
65 -33 0 -34 0 -62 -147 c-34 -82 -66 -154 -69 -161 -5 -8 -37 52 -80 148
l-74 160 -33 0 -33 0 55 -117z" />
		<path d="M4318 886 c-2 -100 -1 -191 0 -200 3 -12 12 -16 30 -14 l27 3 3 198
2 197 -29 0 -30 0 -3 -184z" />
		<path d="M12569 989 c-56 -16 -91 -58 -97 -118 -4 -45 -2 -53 25 -80 21 -20
57 -38 116 -56 106 -32 130 -62 87 -105 -29 -29 -95 -26 -155 6 l-48 25 -25
-24 -24 -25 38 -26 c48 -33 128 -51 188 -42 92 14 146 99 109 174 -21 43 -61
68 -141 89 -31 8 -65 22 -74 30 -23 20 -23 56 -1 74 24 20 95 15 137 -9 l35
-21 22 30 c12 17 20 32 18 33 -2 2 -22 13 -44 24 -51 25 -119 34 -166 21z" />
		<path d="M18143 986 c-118 -38 -179 -147 -152 -275 9 -46 20 -65 58 -102 70
-71 161 -88 262 -50 84 32 89 41 89 143 l0 88 -95 0 -95 0 0 -30 c0 -30 1 -30
55 -30 l55 0 0 -46 c0 -42 -2 -46 -35 -60 -93 -39 -189 6 -214 101 -11 45 -2
101 23 140 38 58 136 75 203 35 l36 -21 23 28 c26 33 25 37 -26 63 -51 26
-134 33 -187 16z" />
		<path d="M10750 770 l0 -220 40 0 40 0 0 220 0 220 -40 0 -40 0 0 -220z" />
		<path d="M10960 770 l0 -220 40 0 39 0 3 152 3 152 119 -152 c111 -143 121
-152 152 -152 l34 0 0 220 0 220 -40 0 -40 0 0 -152 0 -151 -117 151 c-114
149 -117 152 -155 152 l-38 0 0 -220z" />
		<path d="M11480 770 l0 -220 113 0 c97 0 119 3 162 24 59 27 77 46 104 106 54
118 -9 259 -133 295 -29 9 -90 15 -148 15 l-98 0 0 -220z m253 120 c94 -64 82
-214 -19 -256 -19 -8 -61 -14 -94 -14 l-60 0 0 151 0 151 69 -4 c52 -3 77 -9
104 -28z" />
		<path d="M11980 849 c0 -174 10 -218 60 -263 68 -62 191 -62 259 -1 52 47 61
87 61 259 l0 146 -40 0 -40 0 0 -155 0 -155 -29 -32 c-26 -29 -35 -33 -80 -33
-42 0 -55 5 -78 28 -28 27 -28 28 -31 187 l-3 160 -40 0 -39 0 0 -141z" />
		<path d="M12860 955 l0 -35 70 0 70 0 0 -185 0 -185 40 0 40 0 0 185 0 185 70
0 70 0 0 35 0 35 -180 0 -180 0 0 -35z" />
		<path d="M13320 771 l0 -221 40 0 40 0 0 75 0 75 48 0 c47 -1 47 -1 97 -73 50
-71 52 -72 99 -75 l49 -3 -39 53 c-81 112 -80 110 -65 116 8 3 30 19 49 37 64
58 52 162 -25 212 -22 15 -53 19 -160 21 l-133 4 0 -221z m261 120 c26 -32 24
-67 -6 -96 -21 -22 -33 -25 -98 -25 -40 0 -76 2 -78 4 -2 2 -2 37 -1 76 l4 72
80 -4 c69 -3 82 -6 99 -27z" />
		<path d="M13790 770 l0 -220 40 0 40 0 0 220 0 220 -40 0 -40 0 0 -220z" />
		<path d="M14139 943 c-28 -65 -115 -266 -145 -332 -13 -29 -24 -55 -24 -57 0
-2 17 -4 39 -4 37 0 40 2 60 50 l22 50 107 0 108 0 18 -50 c18 -49 19 -50 61
-50 l43 0 -97 220 -96 220 -38 0 c-36 0 -39 -3 -58 -47z m100 -142 c17 -41 30
-76 27 -78 -2 -2 -35 -3 -74 -1 l-71 3 36 83 c20 46 39 79 43 75 5 -4 22 -41
39 -82z" />
		<path d="M14520 770 l0 -220 155 0 155 0 0 35 0 35 -115 0 -115 0 0 185 0 185
-40 0 -40 0 0 -220z" />
		<path d="M15100 955 l0 -35 70 0 70 0 0 -185 0 -185 40 0 40 0 0 185 0 185 70
0 70 0 0 35 0 35 -180 0 -180 0 0 -35z" />
		<path d="M15557 983 c-4 -3 -7 -102 -7 -220 l0 -213 40 0 40 0 0 76 0 75 52
-3 52 -3 51 -72 c50 -72 50 -72 97 -73 l48 0 -55 76 c-30 43 -55 80 -55 83 0
3 13 13 29 23 95 54 90 186 -9 236 -38 19 -60 22 -160 22 -64 0 -120 -3 -123
-7z m264 -92 c10 -13 19 -33 19 -46 0 -13 -9 -33 -19 -46 -17 -21 -29 -24
-105 -28 l-86 -3 0 77 0 77 86 -3 c76 -4 88 -7 105 -28z" />
		<path d="M16112 828 c-39 -90 -82 -189 -96 -220 l-26 -58 41 0 c39 0 41 2 61
50 l21 50 107 0 107 0 21 -50 c20 -48 22 -50 62 -50 l40 0 -14 33 c-25 59
-154 351 -166 380 -11 22 -20 27 -50 27 l-37 0 -71 -162z m146 -16 c17 -42 32
-80 32 -85 0 -4 -31 -7 -70 -7 -38 0 -70 3 -70 8 0 13 63 162 69 162 3 0 21
-35 39 -78z" />
		<path d="M16550 770 l0 -220 35 0 c19 0 35 3 35 8 1 279 1 410 1 420 -1 7 -15
12 -36 12 l-35 0 0 -220z" />
		<path d="M16760 770 l0 -220 35 0 35 0 0 150 c0 83 3 150 8 150 4 0 59 -68
122 -150 106 -139 117 -150 147 -150 l33 0 0 220 0 220 -35 0 -34 0 -3 -152
-3 -152 -118 152 c-112 144 -119 152 -152 152 l-35 0 0 -220z" />
		<path d="M17280 770 l0 -220 35 0 35 0 0 220 0 220 -35 0 -35 0 0 -220z" />
		<path d="M17490 770 l0 -220 35 0 35 0 0 150 c0 83 3 150 8 150 4 -1 59 -68
122 -150 106 -139 117 -150 148 -150 l32 0 0 220 0 220 -35 0 -34 0 -3 -152
-3 -152 -118 152 c-112 144 -119 152 -152 152 l-35 0 0 -220z" />
	</g>
</svg>