<?xml version="1.0" standalone="no"?>
<!DOCTYPE svg PUBLIC "-//W3C//DTD SVG 20010904//EN" "http://www.w3.org/TR/2001/REC-SVG-20010904/DTD/svg10.dtd">
<svg version="1.0" xmlns="http://www.w3.org/2000/svg" width="469.000000pt" height="244.000000pt"
	viewBox="0 0 469.000000 244.000000" preserveAspectRatio="xMidYMid meet">

	<g transform="translate(0.000000,244.000000) scale(0.100000,-0.100000)" fill="#ffffff" stroke="none">
		<path d="M2259 1940 c-199 -31 -366 -178 -429 -379 -18 -57 -20 -92 -20 -367
l0 -304 28 6 c48 12 67 21 100 49 63 53 66 68 73 310 5 196 8 226 28 277 28
73 94 141 169 176 76 36 193 37 263 3 74 -36 125 -86 161 -159 l33 -66 5 -221
c5 -218 5 -220 32 -267 30 -49 78 -86 132 -98 l34 -7 7 261 c7 267 1 347 -30
437 -83 234 -338 386 -586 349z" />
		<path d="M3445 1933 c-50 -10 -106 -36 -102 -47 39 -95 82 -174 91 -168 6 3
39 11 73 17 l63 10 -30 60 c-16 33 -36 77 -44 98 -8 20 -19 36 -23 36 -4 -1
-17 -3 -28 -6z" />
		<path d="M600 1405 l0 -517 33 7 c46 10 78 29 114 67 44 46 50 68 58 211 l8
127 172 0 c200 0 248 -10 324 -70 55 -43 95 -105 117 -176 30 -102 83 -150
175 -161 l52 -6 -7 93 c-13 163 -65 279 -169 380 l-46 44 58 61 c101 105 147
211 158 365 l6 90 -39 0 c-90 -1 -159 -59 -188 -161 -32 -112 -119 -201 -229
-234 -36 -11 -98 -15 -219 -15 l-168 0 0 89 c0 201 -51 292 -178 317 l-32 7 0
-518z" />
		<path d="M3045 1568 c-28 -94 -30 -193 -7 -286 90 -355 479 -521 787 -337 33
20 69 45 80 55 19 19 19 20 -15 92 -19 40 -41 83 -48 95 l-14 22 -30 -34 c-16
-19 -60 -49 -96 -67 -59 -29 -76 -33 -147 -33 -98 1 -171 32 -233 99 -71 77
-86 118 -87 226 0 52 4 105 8 118 8 21 2 26 -77 62 -48 22 -91 40 -96 40 -5 0
-16 -24 -25 -52z" />
		<path d="M3522 1600 c-18 -4 -35 -9 -37 -11 -1 -2 17 -46 41 -98 24 -52 42
-96 40 -98 -2 -2 -46 17 -96 42 -105 53 -110 51 -110 -28 0 -77 55 -161 123
-186 36 -14 108 -14 144 0 85 32 146 152 103 204 -7 8 -9 15 -4 15 5 0 5 4 -1
8 -5 4 -23 35 -40 69 -37 76 -86 101 -163 83z" />
		<path d="M1019 719 c-19 -19 -21 -30 -17 -100 3 -83 12 -99 54 -99 36 0 44 20
44 105 0 87 -4 99 -37 109 -16 5 -28 1 -44 -15z m59 -83 c3 -70 -8 -99 -34
-89 -10 4 -14 24 -14 77 0 76 4 89 30 84 11 -3 16 -19 18 -72z" />
		<path d="M600 625 l0 -105 46 0 c53 0 58 23 6 28 -28 3 -32 7 -32 32 0 24 5
29 27 32 39 4 42 28 4 28 -29 0 -31 3 -31 35 0 33 2 35 35 35 19 0 35 5 35 10
0 6 -20 10 -45 10 l-45 0 0 -105z" />
		<path d="M710 625 c0 -87 3 -105 15 -105 12 0 15 14 16 63 l1 62 15 -42 c8
-24 18 -43 22 -43 4 0 14 19 22 43 l14 42 3 -62 c2 -47 7 -63 17 -63 12 0 15
20 15 106 0 94 -2 105 -17 102 -10 -2 -23 -22 -32 -51 -8 -26 -18 -47 -22 -47
-4 0 -15 23 -24 50 -10 29 -23 50 -31 50 -11 0 -14 -21 -14 -105z" />
		<path d="M880 626 c0 -88 3 -106 15 -106 11 0 15 11 15 39 0 34 4 40 30 49 34
12 48 50 34 91 -8 22 -16 27 -52 29 l-42 3 0 -105z m65 44 c0 -25 -5 -36 -17
-38 -15 -3 -18 4 -18 38 0 34 3 41 18 38 12 -2 17 -13 17 -38z" />
		<path d="M1139 625 c10 -68 19 -105 27 -105 12 0 16 12 30 95 8 46 17 31 28
-47 12 -79 32 -61 46 40 6 48 14 95 16 105 4 11 0 17 -10 17 -10 0 -16 -17
-22 -66 -7 -74 -18 -69 -29 14 -10 73 -31 69 -40 -8 -7 -61 -25 -83 -25 -31 0
47 -12 91 -24 91 -9 0 -9 -26 3 -105z" />
		<path d="M1310 625 l0 -105 45 0 c33 0 45 4 45 15 0 10 -10 15 -31 15 -28 0
-30 2 -27 33 2 24 8 33 26 35 30 5 28 22 -3 22 -22 0 -25 4 -25 35 0 32 2 35
30 35 17 0 30 5 30 10 0 6 -20 10 -45 10 l-45 0 0 -105z" />
		<path d="M1430 626 c0 -64 4 -106 10 -106 6 0 10 20 10 45 0 33 4 45 15 45 9
0 20 -17 27 -45 7 -25 18 -45 25 -45 16 0 16 -1 -2 49 -13 38 -13 45 2 67 12
19 14 32 7 57 -9 29 -14 32 -52 35 l-42 3 0 -105z m68 47 c3 -30 1 -33 -22
-33 -23 0 -26 4 -26 36 0 31 3 35 23 32 17 -2 23 -11 25 -35z" />
		<path d="M1600 721 c0 -5 9 -11 20 -14 18 -5 20 -14 20 -96 0 -54 4 -91 10
-91 6 0 10 38 10 95 0 88 1 95 20 95 11 0 20 5 20 10 0 6 -22 10 -50 10 -27 0
-50 -4 -50 -9z" />
		<path d="M1720 625 c0 -105 16 -148 22 -57 3 39 6 47 23 47 17 0 20 -8 23 -47
6 -91 22 -48 22 57 0 63 -4 105 -10 105 -5 0 -10 -20 -10 -45 0 -41 -2 -45
-25 -45 -23 0 -25 4 -25 45 0 25 -4 45 -10 45 -6 0 -10 -42 -10 -105z" />
		<path d="M1850 625 l0 -105 40 0 c45 0 55 17 13 22 -25 3 -28 7 -28 38 0 31 3
35 28 38 37 4 35 22 -3 22 -28 0 -30 3 -30 35 0 32 2 35 30 35 17 0 30 5 30
10 0 6 -18 10 -40 10 l-40 0 0 -105z" />
		<path d="M2020 625 c0 -63 4 -105 10 -105 6 0 10 27 10 60 0 67 13 79 27 24
10 -46 25 -46 37 0 14 54 26 43 26 -24 0 -33 4 -60 10 -60 6 0 10 42 10 105 0
103 -10 132 -29 83 -5 -13 -15 -39 -23 -58 l-15 -35 -18 58 c-30 92 -45 75
-45 -48z" />
		<path d="M2190 625 c0 -63 4 -105 10 -105 6 0 10 42 10 105 0 63 -4 105 -10
105 -6 0 -10 -42 -10 -105z" />
		<path d="M2250 625 c0 -63 4 -105 10 -105 6 0 10 27 10 60 0 33 4 60 8 60 4 0
17 -26 28 -57 33 -91 44 -80 44 41 0 64 -4 106 -10 106 -6 0 -10 -27 -10 -61
0 -72 -12 -70 -36 6 -29 90 -44 72 -44 -50z" />
		<path d="M2390 625 l0 -105 29 0 c49 0 61 22 61 109 0 87 -8 101 -57 101 l-33
0 0 -105z m64 69 c11 -28 6 -130 -6 -142 -30 -30 -38 -13 -38 73 0 77 2 85 19
85 10 0 22 -7 25 -16z" />
		<path d="M2520 625 c0 -63 4 -105 10 -105 6 0 10 20 10 45 0 41 2 45 25 45 16
0 25 6 25 15 0 9 -9 15 -25 15 -22 0 -25 4 -25 35 0 32 2 35 30 35 17 0 30 5
30 10 0 6 -18 10 -40 10 l-40 0 0 -105z" />
		<path d="M2630 644 c0 -47 5 -94 10 -105 12 -21 50 -25 68 -7 15 15 17 198 2
198 -6 0 -10 -36 -10 -89 0 -91 -9 -113 -35 -91 -11 9 -15 35 -15 96 0 49 -4
84 -10 84 -6 0 -10 -35 -10 -86z" />
		<path d="M2760 625 l0 -105 45 0 c52 0 61 17 13 22 l-33 3 -3 93 c-4 128 -22
117 -22 -13z" />
		<path d="M2920 720 c0 -5 7 -10 15 -10 12 0 15 -17 15 -95 0 -57 4 -95 10 -95
6 0 10 37 10 91 0 82 2 91 20 96 36 9 21 23 -25 23 -25 0 -45 -4 -45 -10z" />
		<path d="M3030 625 l0 -105 45 0 c25 0 45 5 45 10 0 6 -13 10 -30 10 -28 0
-30 2 -30 40 0 36 3 40 25 40 14 0 25 5 25 10 0 6 -11 10 -25 10 -22 0 -25 4
-25 35 0 32 2 35 30 35 17 0 30 5 30 10 0 6 -20 10 -45 10 l-45 0 0 -105z" />
		<path d="M3157 723 c-4 -3 -7 -46 -7 -93 0 -65 4 -91 15 -100 19 -15 61 -6 69
16 10 25 -1 29 -23 10 -31 -29 -41 -11 -41 75 0 67 3 79 16 79 9 0 23 -8 30
-17 17 -24 29 -10 14 16 -10 20 -58 30 -73 14z" />
		<path d="M3270 625 c0 -105 16 -148 22 -57 3 40 6 47 26 50 20 3 22 0 22 -47
0 -28 5 -51 10 -51 6 0 10 42 10 105 0 63 -4 105 -10 105 -5 0 -10 -20 -10
-45 0 -41 -2 -45 -25 -45 -23 0 -25 4 -25 45 0 25 -4 45 -10 45 -6 0 -10 -42
-10 -105z" />
		<path d="M3472 718 c-6 -6 -12 -27 -12 -45 0 -28 5 -36 35 -50 28 -13 35 -22
35 -45 0 -36 -27 -49 -46 -23 -17 23 -33 11 -18 -13 16 -24 55 -28 71 -6 7 10
13 33 13 51 0 28 -5 36 -35 50 -25 12 -35 23 -35 40 0 31 29 42 46 18 17 -23
33 -11 18 13 -14 21 -55 27 -72 10z" />
		<path d="M3616 713 c-18 -61 -42 -193 -35 -193 5 0 12 11 15 26 5 20 12 24 33
22 18 -2 27 -10 29 -25 2 -13 8 -23 14 -23 5 0 8 10 5 23 -3 12 -13 59 -23
105 -17 81 -28 99 -38 65z m24 -60 c0 -10 3 -28 6 -40 5 -19 2 -23 -15 -23
-22 0 -26 16 -15 58 7 26 24 30 24 5z" />
		<path d="M3694 713 c3 -10 12 -57 22 -105 9 -49 21 -88 25 -88 5 0 9 2 9 4 0
2 9 48 20 101 23 113 22 105 11 105 -5 0 -15 -34 -22 -75 -6 -41 -15 -75 -19
-75 -4 0 -11 24 -14 53 -10 73 -17 97 -28 97 -5 0 -7 -8 -4 -17z" />
		<path d="M3820 713 c2 -42 37 -188 45 -186 5 1 19 47 30 103 13 61 17 99 11
97 -6 -2 -14 -26 -19 -53 -4 -27 -10 -60 -13 -74 -6 -24 -6 -24 -14 -4 -5 11
-11 46 -15 77 -4 32 -11 57 -16 57 -5 0 -9 -8 -9 -17z" />
		<path d="M3940 727 c0 -2 9 -30 20 -62 11 -32 20 -78 20 -102 0 -23 5 -43 10
-43 6 0 10 24 10 54 0 29 7 73 15 96 17 49 19 64 6 56 -5 -3 -12 -22 -15 -41
-9 -46 -22 -44 -37 5 -7 22 -16 40 -21 40 -4 0 -8 -2 -8 -3z" />
	</g>
</svg>