<?xml version="1.0" standalone="no"?>
<!DOCTYPE svg PUBLIC "-//W3C//DTD SVG 20010904//EN" "http://www.w3.org/TR/2001/REC-SVG-20010904/DTD/svg10.dtd">
<svg version="1.0" xmlns="http://www.w3.org/2000/svg" width="2502.000000pt" height="1242.000000pt"
	viewBox="0 0 2502.000000 1242.000000" preserveAspectRatio="xMidYMid meet">

	<g transform="translate(0.000000,1242.000000) scale(0.100000,-0.100000)" fill="#ffffff" stroke="none">
		<path d="M15200 10650 l0 -1240 675 0 675 0 0 190 0 190 -485 0 -485 0 0 1050
0 1050 -190 0 -190 0 0 -1240z" />
		<path d="M17039 11054 l421 -836 0 -404 0 -404 185 0 185 0 0 405 0 405 175
350 175 350 -164 0 c-90 0 -183 -3 -207 -6 l-44 -6 -55 -106 c-30 -58 -59
-105 -65 -105 -5 0 -152 268 -325 594 l-315 594 -194 3 -193 2 421 -836z" />
		<path d="M19639 11875 c-108 -20 -259 -76 -354 -131 -301 -175 -501 -458 -581
-824 -15 -66 -19 -127 -19 -275 0 -203 11 -279 61 -433 128 -390 436 -690 809
-788 135 -36 352 -44 476 -19 165 33 315 97 456 194 92 63 223 176 223 192 0
11 -210 269 -219 269 -3 0 -33 -23 -65 -51 -188 -161 -357 -229 -566 -229
-309 0 -570 174 -710 473 -62 131 -84 236 -83 397 0 269 78 467 252 641 150
150 298 217 499 228 l114 6 73 172 c62 147 70 173 56 179 -33 15 -344 14 -422
-1z" />
		<path d="M21100 10650 l0 -1240 820 0 820 0 0 185 0 185 -630 0 -630 0 0 345
0 345 550 0 550 0 0 185 0 185 -550 0 -550 0 0 335 0 335 610 0 610 0 0 190 0
190 -800 0 -800 0 0 -1240z" />
		<path d="M23200 10650 l0 -1240 825 0 825 0 0 185 0 185 -635 0 -635 0 0 345
0 345 550 0 550 0 0 185 0 185 -550 0 -550 0 0 335 0 335 615 0 615 0 0 190 0
190 -805 0 -805 0 0 -1240z" />
		<path d="M4080 7625 c-432 -68 -790 -376 -933 -805 -50 -150 -61 -231 -62
-430 0 -197 11 -274 61 -428 176 -539 685 -879 1232 -824 464 46 844 349 1001
795 55 158 74 273 74 452 1 368 -118 669 -358 910 -266 268 -638 389 -1015
330z m340 -377 c292 -55 538 -304 621 -627 26 -102 34 -246 20 -356 -39 -296
-208 -548 -451 -674 -203 -106 -463 -110 -661 -11 -410 206 -593 709 -420
1155 145 375 510 585 891 513z" />
		<path d="M300 6390 l0 -1240 175 0 175 0 2 920 3 921 351 -788 352 -788 126 0
127 0 345 775 c190 426 350 779 355 785 5 5 9 -349 9 -908 l0 -917 175 0 175
0 0 1240 0 1240 -222 0 -223 0 -364 -813 c-200 -446 -367 -816 -371 -820 -4
-4 -173 361 -376 812 l-369 820 -222 1 -223 0 0 -1240z" />
		<path d="M5860 6390 l0 -1240 190 0 190 0 0 515 0 515 595 0 595 0 0 -515 0
-515 190 0 190 0 0 1240 0 1240 -190 0 -190 0 0 -535 0 -535 -595 0 -595 0 0
535 0 535 -190 0 -190 0 0 -1240z" />
		<path d="M8610 6398 c-271 -678 -495 -1236 -497 -1240 -2 -5 85 -8 194 -8
l198 0 107 278 106 277 568 0 568 0 104 -270 c57 -148 107 -273 111 -278 4 -4
96 -6 204 -5 l196 3 -489 1235 -488 1235 -195 3 -195 2 -492 -1232z m889 230
c110 -291 201 -532 201 -538 0 -7 -144 -10 -415 -10 -300 0 -415 3 -415 11 0
9 249 665 401 1058 6 14 13 20 18 15 4 -5 99 -246 210 -536z" />
		<path d="M10770 6390 l0 -1240 175 0 175 0 0 922 c0 522 4 918 9 912 4 -5 165
-361 357 -792 l348 -783 126 3 125 3 350 785 350 785 6 -655 c3 -360 7 -773 8
-917 l1 -263 170 0 170 0 0 1240 0 1240 -221 -2 -222 -3 -366 -817 c-201 -450
-368 -817 -371 -817 -3 0 -171 368 -374 819 l-369 820 -223 0 -224 0 0 -1240z" />
		<path d="M13740 6390 l0 -1240 175 0 175 0 0 923 c1 898 1 921 19 887 10 -19
170 -376 356 -793 l338 -758 125 3 125 3 351 787 351 786 3 -919 2 -919 175 0
175 0 0 1240 0 1240 -222 -2 -222 -3 -361 -803 c-198 -441 -364 -809 -370
-817 -8 -12 -96 176 -380 805 l-369 820 -223 0 -223 0 0 -1240z" />
		<path d="M16710 6390 l0 -1240 820 0 820 0 0 190 0 190 -630 0 -630 0 0 340 0
340 545 0 545 0 0 190 0 190 -545 0 -545 0 0 335 0 335 610 0 610 0 0 185 0
185 -800 0 -800 0 0 -1240z" />
		<path d="M18810 6391 l0 -1241 488 0 c606 0 695 10 902 99 162 70 334 206 443
351 98 130 178 311 220 500 31 140 30 441 -1 588 -105 484 -418 809 -882 918
-65 15 -145 18 -622 21 l-548 4 0 -1240z m992 859 c190 -22 324 -86 458 -220
120 -120 185 -240 227 -416 24 -106 25 -358 0 -456 -44 -179 -116 -309 -232
-423 -85 -83 -170 -135 -280 -173 l-80 -27 -352 -3 -353 -3 0 865 0 866 263 0
c144 0 301 -5 349 -10z" />
		<path d="M21874 7538 c19 -51 220 -609 448 -1240 l413 -1148 197 0 196 0 10
28 c5 15 206 565 447 1222 241 657 440 1203 443 1213 4 16 -10 17 -190 17
l-195 0 -25 -67 c-13 -38 -170 -490 -349 -1005 -178 -515 -327 -933 -330 -930
-3 4 -138 392 -299 862 -161 470 -315 919 -343 998 l-49 142 -204 0 -203 0 33
-92z" />
		<path d="M24340 6390 l0 -1240 190 0 190 0 0 1240 0 1240 -190 0 -190 0 0
-1240z" />
		<path d="M9318 3361 c-232 -51 -407 -143 -571 -300 -177 -170 -296 -387 -352
-641 -25 -114 -31 -373 -12 -495 54 -341 224 -635 476 -826 129 -97 331 -183
491 -209 93 -14 286 -12 372 4 219 42 435 155 621 325 31 29 57 57 57 61 0 7
-173 226 -206 259 -11 13 -21 8 -71 -36 -184 -159 -366 -234 -568 -234 -206
-1 -379 68 -528 210 -250 237 -340 623 -225 968 109 331 407 562 724 563 l82
0 75 175 c51 118 72 177 64 182 -6 4 -86 8 -177 10 -133 2 -182 -1 -252 -16z" />
		<path d="M21752 3365 c-612 -111 -1028 -699 -962 -1360 42 -420 251 -771 581
-970 266 -161 611 -200 909 -104 166 54 368 179 487 301 l52 53 -112 137 -111
137 -51 -47 c-78 -73 -145 -119 -247 -166 -124 -58 -209 -78 -334 -78 -353 1
-647 236 -761 609 -24 80 -26 103 -27 258 -1 136 3 183 17 235 73 260 209 440
417 553 104 57 189 79 329 86 l125 6 71 170 72 170 -61 12 c-80 16 -302 15
-394 -2z" />
		<path d="M1110 2135 l0 -1236 558 3 557 4 96 26 c207 56 373 151 513 291 170
170 281 384 333 644 27 134 24 423 -5 560 -54 248 -154 442 -314 609 -136 142
-317 248 -515 302 l-98 26 -562 4 -563 3 0 -1236z m1040 854 c306 -49 551
-288 632 -614 32 -129 32 -361 0 -488 -66 -262 -236 -471 -458 -561 -119 -49
-189 -56 -524 -56 l-310 0 0 865 0 865 298 0 c163 0 326 -5 362 -11z" />
		<path d="M3562 3353 c-59 -29 -112 -125 -112 -203 0 -48 30 -128 59 -159 l29
-31 -59 -147 c-32 -81 -59 -148 -59 -150 0 -2 42 -3 94 -3 l94 0 110 186 c125
210 142 258 123 353 -13 67 -53 127 -101 152 -44 24 -133 25 -178 2z" />
		<path d="M4280 2135 l0 -1235 825 0 825 0 0 185 0 185 -635 0 -635 0 0 345 0
345 550 0 550 0 0 185 0 185 -550 0 -550 0 0 335 0 335 615 0 615 0 0 185 0
185 -805 0 -805 0 0 -1235z" />
		<path d="M6210 3366 c0 -2 169 -272 375 -600 298 -473 374 -600 366 -614 -5
-9 -187 -294 -405 -632 l-396 -615 217 -3 c165 -2 220 1 229 10 6 7 141 214
299 461 158 246 291 447 295 447 4 0 141 -207 305 -460 l298 -460 223 0 c123
0 224 2 224 4 0 3 -181 290 -402 638 -221 348 -401 637 -401 643 0 5 70 121
156 257 87 136 157 250 157 253 0 3 -99 5 -220 5 l-221 0 -57 -90 c-31 -49
-59 -90 -62 -90 -3 0 -126 191 -275 425 l-270 425 -217 0 c-120 0 -218 -2
-218 -4z" />
		<path d="M10790 2135 l0 -1235 820 0 820 0 0 185 0 185 -630 0 -630 0 0 345 0
345 550 0 550 0 0 185 0 185 -550 0 -550 0 0 335 0 335 610 0 610 0 0 185 0
185 -800 0 -800 0 0 -1235z" />
		<path d="M12890 2135 l0 -1235 680 0 680 0 0 185 0 185 -490 0 -490 0 0 1050
0 1050 -190 0 -190 0 0 -1235z" />
		<path d="M14610 2135 l0 -1235 675 0 675 0 0 185 0 185 -485 0 -485 0 0 1050
0 1050 -190 0 -190 0 0 -1235z" />
		<path d="M16320 2135 l0 -1235 820 0 820 0 0 185 0 185 -630 0 -630 0 0 345 0
345 550 0 550 0 0 185 0 185 -550 0 -550 0 0 335 0 335 615 0 615 0 0 185 0
185 -805 0 -805 0 0 -1235z" />
		<path d="M19998 2486 l-3 -883 -585 866 -585 867 -3 -342 -2 -342 587 -875
588 -876 188 0 187 -1 0 1235 0 1235 -185 0 -185 0 -2 -884z" />
		<path d="M23200 2135 l0 -1235 825 0 825 0 0 185 0 185 -635 0 -635 0 0 345 0
345 550 0 550 0 0 185 0 185 -550 0 -550 0 0 335 0 335 615 0 615 0 0 185 0
185 -805 0 -805 0 0 -1235z" />
		<path d="M18430 1725 l0 -825 190 0 190 0 0 825 0 825 -190 0 -190 0 0 -825z" />
	</g>
</svg>