<svg xmlns="http://www.w3.org/2000/svg" id="Layer_2" data-name="Layer 2" viewBox="0 0 1041.44 153.13">
	<defs>
		<style>
			.cls-1 {
				fill: #ffffff;
			}
		</style>
	</defs>
	<g id="Layer_1-2" data-name="Layer 1">
		<g>
			<path class="cls-1"
				d="M859.39,32.73c-1.23.85-2.82,1.26-4.75,1.26-2.03,0-3.8-.51-5.32-1.57-1.51-1.03-2.54-2.34-3.03-3.91l-3.8,1.05c.67,2.24,2.11,4.14,4.34,5.65,2.24,1.54,4.81,2.31,7.71,2.31,3.08,0,5.63-.77,7.66-2.31,2.03-1.52,3.03-3.44,3.03-5.76,0-1.87-.56-3.34-1.7-4.39-1.16-1.03-2.72-1.85-4.73-2.44l-7.47-2.21c-2.34-.69-3.52-1.75-3.52-3.16,0-.98.51-1.88,1.57-2.67,1.03-.8,2.36-1.21,4.01-1.21,1.82,0,3.42.39,4.75,1.18,1.31.8,2.24,1.8,2.72,3.01l3.7-1.1c-.82-1.88-2.21-3.44-4.14-4.68-1.95-1.23-4.26-1.85-6.96-1.85s-4.99.72-6.84,2.19c-1.87,1.46-2.8,3.19-2.8,5.19-.03,3.06,2,5.16,6.09,6.37l7.48,2.21c1.36.44,2.36.9,2.95,1.44.59.54.87,1.34.87,2.34,0,1.21-.62,2.21-1.83,3.06Z" />
			<path class="cls-1"
				d="M884.51,28.85c0,2.6.64,4.63,1.93,6.12,1.26,1.49,3.19,2.24,5.76,2.24,1.87,0,3.7-.39,5.47-1.16l-1.11-3.47c-1.21.59-2.44.9-3.75.9-2.85,0-4.27-1.54-4.27-4.63v-14.59h9.02v-3.67h-9.02V1.54h-4.03v9.04h-5.22v3.67h5.22v14.59Z" />
			<path class="cls-1"
				d="M830.95,24.59c0-4.01.85-6.86,2.52-8.58,1.67-1.69,3.96-2.34,6.91-1.95v-3.78c-2.23-.33-4.16-.05-5.78.82-1.62.9-2.85,2.24-3.65,4.01v-4.52h-4.04v26.26h4.04v-12.26Z" />
			<rect class="cls-1" x="1037.25" y="52.62" width="4.19" height="36.84" />
			<polygon class="cls-1"
				points="1016.21 84.25 1003.64 52.62 999.12 52.62 1013.95 89.46 1018.42 89.46 1033.27 52.62 1028.74 52.62 1016.21 84.25" />
			<path class="cls-1"
				d="M945.55,81.47c-.69,1.46-1.8,2.7-3.26,3.65-1.46.95-3.29,1.44-5.42,1.44-2.88,0-5.19-.82-6.94-2.47-1.77-1.64-2.73-3.8-2.9-6.47h22.4c.08-.46.1-1.11.1-1.9,0-3.78-1.18-6.94-3.52-9.43-2.34-2.49-5.55-3.73-9.63-3.73s-7.12,1.31-9.61,3.93c-2.49,2.62-3.75,5.88-3.75,9.81,0,4.19,1.29,7.53,3.88,10.05,2.57,2.54,5.88,3.8,9.97,3.8,3.08,0,5.68-.72,7.79-2.18,2.11-1.47,3.65-3.26,4.63-5.4l-3.73-1.11ZM929.88,68.63c1.72-1.64,3.91-2.47,6.5-2.47s4.88.77,6.5,2.31c1.62,1.54,2.49,3.57,2.67,6.09l-18.52.05c.18-2.34,1.13-4.34,2.85-5.99Z" />
			<polygon class="cls-1"
				points="907.8 47.89 912.07 47.89 928.23 10.59 923.91 10.59 914.84 31.78 905.13 10.59 900.66 10.59 912.81 36.33 907.8 47.89" />
			<path class="cls-1"
				d="M807.48,90.16c4.62,0,8.09-1.83,10.38-5.47v4.78h4.03v-26.26h-4.03v4.73c-2.34-3.57-5.78-5.37-10.38-5.37-3.78,0-6.94,1.31-9.46,3.93-2.54,2.62-3.8,5.89-3.8,9.81s1.26,7.25,3.8,9.89c2.52,2.65,5.68,3.96,9.46,3.96ZM801,69.09c1.83-1.88,4.19-2.83,7.07-2.83,2.72,0,5.06.95,6.99,2.88,1.93,1.93,2.9,4.34,2.9,7.22s-.95,5.27-2.88,7.19c-1.93,1.92-4.26,2.9-7.01,2.9s-5.24-.95-7.07-2.88c-1.85-1.9-2.77-4.32-2.77-7.22s.93-5.37,2.77-7.27Z" />
			<path class="cls-1"
				d="M808.53,37.54c3.08,0,5.68-.72,7.78-2.18,2.11-1.47,3.65-3.26,4.63-5.4l-3.73-1.11c-.69,1.46-1.8,2.7-3.26,3.65-1.46.95-3.29,1.44-5.42,1.44-2.88,0-5.19-.82-6.94-2.47-1.77-1.64-2.72-3.8-2.9-6.47h22.4c.08-.46.1-1.11.1-1.9,0-3.78-1.18-6.94-3.52-9.43-2.34-2.49-5.55-3.73-9.64-3.73s-7.12,1.31-9.61,3.93-3.75,5.89-3.75,9.82c0,4.19,1.29,7.53,3.88,10.05,2.57,2.54,5.88,3.8,9.97,3.8ZM801.54,16.01c1.72-1.64,3.91-2.47,6.5-2.47s4.88.77,6.5,2.31c1.62,1.54,2.49,3.57,2.67,6.09l-18.52.05c.18-2.34,1.13-4.34,2.85-5.99Z" />
			<path class="cls-1"
				d="M760.1,5.7c.8,0,1.46-.26,2.01-.8.51-.54.77-1.21.77-2,0-.75-.26-1.36-.8-1.9-.54-.51-1.21-.77-1.98-.77s-1.44.26-1.98.77c-.54.54-.82,1.16-.82,1.9,0,.79.25,1.46.79,2,.54.54,1.21.8,2,.8Z" />
			<polygon class="cls-1"
				points="782.08 36.84 793.48 10.59 789.12 10.59 779.87 32.43 770.56 10.59 766.2 10.59 777.61 36.84 782.08 36.84" />
			<path class="cls-1"
				d="M706.22,105.24h-16.24v36.84h4.14v-13.1h11.9c3.78,0,6.78-1.18,8.97-3.57,2.18-2.36,3.29-5.12,3.29-8.28s-1.08-5.83-3.26-8.27c-2.18-2.42-5.11-3.62-8.79-3.62ZM711.98,122.79c-1.51,1.62-3.55,2.42-6.06,2.42h-11.79v-16.11h12c2.36,0,4.32.8,5.83,2.39,1.52,1.59,2.29,3.47,2.29,5.65s-.75,4.06-2.26,5.65Z" />
			<path class="cls-1"
				d="M768.68,76.26c0-2.95.82-5.34,2.44-7.17,1.62-1.83,3.75-2.73,6.4-2.73,2.36,0,4.19.72,5.47,2.16,1.26,1.47,1.9,3.49,1.9,6.09v14.85h4.06v-15.42c0-3.57-.95-6.4-2.83-8.43s-4.44-3.06-7.71-3.06c-2.18,0-4.09.49-5.76,1.44-1.67.98-3.01,2.26-3.98,3.83v-16.78h-4.03v38.41h4.03v-13.21Z" />
			<rect class="cls-1" x="758.1" y="10.59" width="4.04" height="26.26" />
			<polygon class="cls-1"
				points="693.97 52.62 689.98 52.62 689.98 89.46 694.17 89.46 694.17 59.84 707.71 78.98 721.23 59.84 721.23 89.46 725.39 89.46 725.39 52.62 721.38 52.62 707.71 72.25 693.97 52.62" />
			<path class="cls-1"
				d="M730.87,23.64c0-2.95.82-5.34,2.44-7.17,1.62-1.83,3.75-2.73,6.4-2.73,2.36,0,4.19.72,5.47,2.16,1.26,1.47,1.9,3.49,1.9,6.09v14.85h4.06v-15.42c0-3.57-.95-6.4-2.83-8.43-1.87-2.03-4.44-3.06-7.71-3.06-2.18,0-4.09.49-5.76,1.44-1.67.98-3.01,2.26-3.98,3.83v-4.62h-4.03v26.26h4.03v-13.21Z" />
			<path class="cls-1"
				d="M704.65,37.54c4.73,0,8.43-1.39,11.13-4.19,2.7-2.8,4.04-6.5,4.04-11.12V0h-4.21v22.12c0,3.49-.95,6.29-2.83,8.37-1.9,2.08-4.6,3.14-8.12,3.14s-6.19-1.05-8.07-3.14c-1.88-2.08-2.83-4.86-2.83-8.37V0h-4.26v22.23c0,4.63,1.34,8.33,4.03,11.12,2.7,2.8,6.4,4.19,11.12,4.19Z" />
			<path class="cls-1"
				d="M888.67,115.18c-2.19,0-4.08.49-5.76,1.44-1.67.98-3.01,2.26-3.98,3.83v-16.78h-4.04v38.41h4.04v-13.21c0-2.95.82-5.34,2.44-7.17,1.62-1.83,3.75-2.73,6.4-2.73,2.36,0,4.19.72,5.47,2.16,1.26,1.47,1.9,3.49,1.9,6.09v14.85h4.06v-15.42c0-3.57-.95-6.4-2.83-8.43-1.88-2.03-4.45-3.06-7.71-3.06Z" />
			<path class="cls-1"
				d="M911.88,68.45c1.16,1.39,1.72,3.34,1.72,5.86v15.16h4.06v-15.78c0-3.52-.9-6.24-2.73-8.19-1.82-1.95-4.32-2.93-7.48-2.93-4.34,0-7.5,1.7-9.43,5.06-1.62-3.37-4.45-5.06-8.43-5.06s-6.76,1.64-8.74,4.96v-4.32h-4.03v26.26h4.03v-13.41c0-2.91.72-5.27,2.18-7.04s3.34-2.65,5.65-2.65c2.11,0,3.72.69,4.83,2.11,1.11,1.41,1.64,3.34,1.64,5.83v15.16h4.06v-14.06c0-2.75.69-4.93,2.08-6.58,1.39-1.65,3.21-2.47,5.45-2.47s3.96.69,5.11,2.08Z" />
			<rect class="cls-1" x="870.92" y="10.59" width="4.04" height="26.26" />
			<path class="cls-1"
				d="M872.93,5.7c.8,0,1.46-.26,2-.8.51-.54.77-1.21.77-2,0-.75-.26-1.36-.8-1.9-.54-.51-1.21-.77-1.98-.77s-1.44.26-1.98.77c-.54.54-.82,1.16-.82,1.9,0,.79.25,1.46.79,2,.54.54,1.21.8,2,.8Z" />
			<path class="cls-1"
				d="M939.44,105.47c-.77,0-1.44.26-1.98.77-.54.54-.82,1.16-.82,1.9,0,.79.26,1.46.8,2,.54.54,1.21.8,2,.8s1.47-.26,2-.8c.51-.54.77-1.21.77-2,0-.75-.26-1.36-.8-1.9-.54-.51-1.21-.77-1.98-.77Z" />
			<path class="cls-1"
				d="M977.27,67.93c-2.34-3.57-5.78-5.37-10.38-5.37-3.78,0-6.94,1.31-9.45,3.93-2.55,2.62-3.8,5.88-3.8,9.82s1.26,7.24,3.8,9.89c2.52,2.65,5.68,3.96,9.45,3.96,4.65,0,8.09-1.82,10.38-5.47v4.78h4.03v-38.41h-4.03v16.88ZM974.49,83.56c-1.93,1.93-4.26,2.9-7.01,2.9s-5.24-.95-7.07-2.88c-1.85-1.9-2.77-4.32-2.77-7.22s.92-5.37,2.77-7.27c1.83-1.88,4.19-2.83,7.07-2.83,2.72,0,5.06.95,6.99,2.88,1.93,1.93,2.9,4.34,2.9,7.22s-.95,5.27-2.88,7.19Z" />
			<path class="cls-1"
				d="M919.95,115.18c-2.19,0-4.09.49-5.76,1.44-1.67.98-3.01,2.26-3.98,3.83v-4.62h-4.04v26.26h4.04v-13.21c0-2.95.82-5.34,2.44-7.17,1.62-1.83,3.75-2.73,6.4-2.73,2.36,0,4.19.72,5.47,2.16,1.26,1.47,1.9,3.49,1.9,6.09v14.85h4.06v-15.42c0-3.57-.95-6.4-2.83-8.43-1.88-2.03-4.45-3.06-7.71-3.06Z" />
			<rect class="cls-1" x="937.44" y="115.83" width="4.03" height="26.26" />
			<path class="cls-1"
				d="M859.66,62.56c-4.34,0-7.5,1.7-9.43,5.06-1.62-3.37-4.45-5.06-8.43-5.06s-6.76,1.64-8.74,4.96v-4.32h-4.03v26.26h4.03v-13.41c0-2.91.72-5.27,2.18-7.04s3.34-2.65,5.65-2.65c2.11,0,3.72.69,4.83,2.11,1.11,1.41,1.64,3.34,1.64,5.83v15.16h4.06v-14.06c0-2.75.69-4.93,2.08-6.58,1.39-1.65,3.21-2.47,5.45-2.47s3.96.69,5.11,2.08c1.16,1.39,1.72,3.34,1.72,5.86v15.16h4.06v-15.78c0-3.52-.9-6.24-2.73-8.19-1.82-1.95-4.32-2.93-7.48-2.93Z" />
			<path class="cls-1"
				d="M745.18,62.56c-3.98,0-7.27,1.31-9.92,3.93-2.64,2.62-3.98,5.88-3.98,9.81s1.34,7.22,3.98,9.87c2.65,2.65,5.94,3.98,9.92,3.98s7.24-1.34,9.89-3.98c2.62-2.65,3.93-5.94,3.93-9.87s-1.31-7.19-3.93-9.81c-2.65-2.62-5.94-3.93-9.89-3.93ZM752.22,83.53c-1.88,1.93-4.24,2.88-7.04,2.88s-5.22-.95-7.09-2.88c-1.9-1.9-2.85-4.29-2.85-7.17s.95-5.29,2.85-7.22c1.87-1.93,4.24-2.88,7.09-2.88s5.16.95,7.04,2.88c1.88,1.93,2.8,4.34,2.8,7.22s-.92,5.27-2.8,7.17Z" />
			<path class="cls-1"
				d="M960.69,118.83c2.03,0,3.8.54,5.34,1.62,1.54,1.1,2.54,2.36,3.01,3.8l3.8-1.1c-.59-2.03-2-3.88-4.19-5.52-2.19-1.62-4.86-2.44-7.97-2.44-3.93,0-7.19,1.31-9.79,3.93-2.59,2.62-3.91,5.89-3.91,9.77s1.31,7.27,3.91,9.92c2.59,2.65,5.86,3.98,9.79,3.98,3.16,0,5.81-.82,7.99-2.44,2.18-1.62,3.57-3.44,4.16-5.52l-3.8-1c-.44,1.44-1.44,2.67-2.95,3.7-1.52,1.05-3.31,1.57-5.4,1.57-2.85,0-5.17-1-6.96-2.98-1.82-1.98-2.72-4.34-2.72-7.12s.9-5.22,2.7-7.19c1.77-1.98,4.11-2.95,6.99-2.95Z" />
			<path class="cls-1"
				d="M826.44,115.18c-3.93,0-7.12,1.31-9.61,3.93s-3.75,5.89-3.75,9.81c0,4.19,1.28,7.53,3.88,10.05,2.57,2.54,5.88,3.8,9.97,3.8,3.08,0,5.68-.72,7.79-2.18,2.11-1.47,3.65-3.26,4.63-5.4l-3.72-1.11c-.7,1.46-1.8,2.7-3.26,3.65-1.46.95-3.29,1.44-5.42,1.44-2.88,0-5.19-.82-6.94-2.47-1.77-1.64-2.73-3.8-2.9-6.47h22.4c.08-.46.1-1.11.1-1.9,0-3.78-1.18-6.94-3.52-9.43-2.34-2.49-5.55-3.73-9.63-3.73ZM817.09,127.23c.18-2.34,1.13-4.34,2.85-5.99,1.72-1.64,3.91-2.47,6.5-2.47s4.88.77,6.5,2.31c1.62,1.54,2.49,3.57,2.67,6.09l-18.53.05Z" />
			<polygon class="cls-1"
				points="776.24 137.02 766.53 115.83 762.06 115.83 774.21 141.57 769.2 153.13 773.46 153.13 789.63 115.83 785.31 115.83 776.24 137.02" />
			<path class="cls-1"
				d="M805.75,138.72c-2.85,0-4.27-1.54-4.27-4.63v-14.59h9.02v-3.67h-9.02v-9.04h-4.03v9.04h-5.22v3.67h5.22v14.59c0,2.6.64,4.63,1.93,6.12,1.26,1.49,3.19,2.24,5.76,2.24,1.88,0,3.7-.39,5.47-1.16l-1.11-3.47c-1.21.59-2.44.9-3.75.9Z" />
			<path class="cls-1"
				d="M857.38,118.83c2.03,0,3.8.54,5.34,1.62,1.54,1.1,2.54,2.36,3.01,3.8l3.8-1.1c-.59-2.03-2-3.88-4.19-5.52-2.18-1.62-4.86-2.44-7.97-2.44-3.93,0-7.19,1.31-9.79,3.93-2.59,2.62-3.91,5.89-3.91,9.77s1.31,7.27,3.91,9.92c2.59,2.65,5.86,3.98,9.79,3.98,3.16,0,5.81-.82,7.99-2.44,2.18-1.62,3.57-3.44,4.16-5.52l-3.8-1c-.44,1.44-1.44,2.67-2.95,3.7-1.52,1.05-3.31,1.57-5.4,1.57-2.85,0-5.17-1-6.96-2.98-1.82-1.98-2.72-4.34-2.72-7.12s.9-5.22,2.7-7.19c1.77-1.98,4.11-2.95,6.99-2.95Z" />
			<rect class="cls-1" x="754.07" y="103.67" width="4.03" height="38.41" />
			<path class="cls-1"
				d="M734.63,115.18c-3.98,0-7.27,1.31-9.92,3.93-2.65,2.62-3.98,5.89-3.98,9.82s1.34,7.22,3.98,9.87c2.64,2.65,5.93,3.98,9.92,3.98s7.25-1.34,9.89-3.98c2.62-2.65,3.93-5.94,3.93-9.87s-1.31-7.19-3.93-9.82c-2.64-2.62-5.93-3.93-9.89-3.93ZM741.67,136.15c-1.88,1.93-4.24,2.88-7.04,2.88s-5.22-.95-7.09-2.88c-1.9-1.9-2.85-4.29-2.85-7.17s.95-5.29,2.85-7.22c1.88-1.93,4.24-2.88,7.09-2.88s5.17.95,7.04,2.88c1.87,1.93,2.8,4.34,2.8,7.22s-.93,5.27-2.8,7.17Z" />
			<path class="cls-1"
				d="M0,142.11h140.6V1.51H0v140.6ZM32.86,29.92h20.24v48.94c0,5.61,1.46,10.14,4.38,13.59,2.92,3.45,7.2,5.18,12.82,5.18s9.9-1.72,12.82-5.18c2.92-3.45,4.38-7.98,4.38-13.59V29.92h20.24v49.3c0,11.1-3.28,20-9.85,26.71-6.57,6.71-15.76,10.06-27.56,10.06s-21.1-3.35-27.65-10.06c-6.55-6.71-9.83-15.61-9.83-26.71V29.92Z" />
			<path class="cls-1"
				d="M154.79,142.11h140.6V1.51h-140.6v140.6ZM180.32,29.63h19l25.83,37.48,25.65-37.48h19.06v84.36h-20v-49.42l-24.83,33.88-24.71-33.88v49.42h-20V29.63Z" />
			<path class="cls-1"
				d="M379.78,98.16c3.94,0,7.09-1.17,9.44-3.5,2.35-2.33,3.53-5.34,3.53-9.03s-1.18-6.48-3.53-8.85-5.51-3.56-9.47-3.56-6.97,1.18-9.38,3.53c-2.41,2.35-3.62,5.31-3.62,8.88s1.19,6.7,3.56,9.03c2.37,2.33,5.53,3.5,9.47,3.5Z" />
			<path class="cls-1"
				d="M309.45,142.11h140.6V1.51h-140.6v140.6ZM352.81,67.74l23.94-37.83h22.53l-16.47,26.06c8.75.63,15.9,3.68,21.47,9.15s8.35,12.31,8.35,20.5c0,8.67-3.13,15.89-9.38,21.68-6.26,5.78-14.08,8.68-23.47,8.68s-17.23-2.87-23.5-8.62c-6.27-5.75-9.41-12.99-9.41-21.74,0-5.61,1.98-11.57,5.94-17.88Z" />
			<path class="cls-1"
				d="M547,68.81c2.28-2.47,3.41-5.35,3.41-8.65s-1.08-6.19-3.24-8.68c-2.16-2.49-4.84-3.74-8.06-3.74h-20.36v24.77h19.53c3.53,0,6.43-1.24,8.71-3.71Z" />
			<path class="cls-1"
				d="M464.11,142.11h140.6V1.51h-140.6v140.6ZM499,29.63h40.59c8.98,0,16.27,3.1,21.85,9.3,5.59,6.2,8.38,13.22,8.38,21.06s-2.83,15.02-8.5,21.18c-5.67,6.16-13.19,9.24-22.56,9.24h-20v23.59h-19.77V29.63Z" />
		</g>
	</g>
</svg>